<svg width="32" height="32" viewBox="0 0 32 32" fill="none" xmlns="http://www.w3.org/2000/svg">
<path fill-rule="evenodd" clip-rule="evenodd" d="M28.3855 18.392C27.4858 17.5417 25.887 16.2663 24.7874 15.6281C24.1878 15.3095 23.6887 14.9909 23.6887 14.8844C23.6887 14.8844 23.5883 14.9909 23.4888 14.9909L23.289 15.203V15.416L27.1873 19.4562C27.2868 19.5627 27.2868 19.7748 27.2868 19.8813V21.7949C27.2868 21.9014 27.1873 22.0079 27.087 22.0079H24.6879C24.5875 22.0079 24.488 22.0079 24.3877 21.9014L23.5883 21.1577C23.4879 21.0511 23.4879 21.0511 23.3884 21.1577L22.6885 22.1144V22.4331L24.1878 23.9215C24.2873 24.028 24.3877 24.1345 24.6879 24.1345H28.6858C28.986 24.1345 29.1858 23.9215 29.1858 23.6029V19.5609C29.2853 19.1357 28.986 18.8162 28.3864 18.391L28.3855 18.392ZM20.6892 14.99C20.6892 14.99 20.7886 15.0965 20.7886 15.2021L20.9885 15.4151H21.1883L24.9863 11.2693C25.0858 11.1628 25.2857 11.1628 25.386 11.1628H27.1856C27.285 11.1628 27.3854 11.2693 27.3854 11.3758V13.9276C27.3854 14.0341 27.3854 14.1406 27.285 14.2462L26.4856 15.0965C26.3862 15.203 26.3862 15.203 26.4856 15.3095L27.3854 16.0533H27.6856L29.0846 14.4583C29.184 14.3518 29.2844 14.2453 29.2844 13.9267V9.67438C29.2844 9.35576 29.0846 9.14272 28.7843 9.14272H24.9863C24.6861 9.14272 24.3868 9.46135 23.9862 9.993C23.1868 10.9498 21.9877 12.6503 21.3873 13.8201C21.0871 14.2453 20.7886 14.8834 20.6892 14.99ZM31.0839 6.05934H17.8913V0L0 2.97687V29.0231L17.8913 32V27.004H31.0848C31.6844 27.004 31.9846 26.5788 31.9846 26.0472V7.01612C32.0849 6.37888 31.6844 6.05934 31.0839 6.05934ZM11.7937 23.1759L6.19706 22.6442V10.206L11.2945 9.78089V12.2261L8.19643 12.3326V15.203H11.2945V17.6482L8.19643 17.5417V20.4121L11.7946 20.6251V23.1768L11.7937 23.1759ZM30.6842 25.6211H17.9908V24.1327H19.3897C19.6899 24.1327 19.9892 23.8141 20.3898 23.2824C21.1892 22.3256 22.3883 20.6251 22.9887 19.4553C23.289 18.8171 23.5883 18.2854 23.6887 18.2854C23.6887 18.2854 23.5883 18.1789 23.5883 18.0733L23.3884 17.8603H23.1886L19.3906 22.007C19.2911 22.1135 19.0913 22.1135 18.9909 22.1135H17.8913V16.4793L19.4901 17.5426C20.0896 17.8612 20.5897 18.1808 20.5897 18.2864C20.5897 18.2864 20.69 18.1799 20.7895 18.1799L20.9894 17.9678V17.7547L17.8904 14.5657V11.1637H19.5896C19.689 11.1637 19.7894 11.1637 19.8889 11.2703L20.6892 12.1205C20.7886 12.227 20.7886 12.227 20.889 12.1205L21.588 11.1637V10.8451L20.0887 9.35668C19.8889 9.35668 19.7885 9.25017 19.4892 9.25017H17.8904V7.7608H30.5848V25.6211H30.6842Z" fill="white"/>
</svg>
