<svg width="76" height="40" viewBox="0 0 76 40" fill="none" xmlns="http://www.w3.org/2000/svg">
<path d="M51.7169 39.5149V36.0023L51.6472 36.0339C50.8556 36.4165 49.9943 36.6347 49.1109 36.6758C48.1976 36.7412 47.2913 36.4751 46.5588 35.9264C46.038 35.5246 45.6498 34.9762 45.4442 34.3519C45.2207 33.67 45.1955 32.9388 45.3714 32.2431C45.536 31.5318 45.935 30.8963 46.5018 30.4441C47.0084 30.0205 47.6259 29.7549 48.2813 29.679C49.4386 29.5496 50.6082 29.7676 51.6409 30.305L51.7169 30.3461V26.8146L51.5554 26.7703C50.5214 26.4435 49.4375 26.3022 48.3541 26.353C47.3667 26.3742 46.3939 26.5958 45.4949 27.0043C44.5861 27.4216 43.785 28.0381 43.1549 28.8096C42.193 30.022 41.6591 31.5177 41.6362 33.0642C41.6133 34.6108 42.1027 36.1216 43.0282 37.3618C43.9623 38.5569 45.2732 39.4011 46.7488 39.752C48.3035 40.1314 49.9342 40.0745 51.4572 39.5876L51.7169 39.5149ZM16.9023 39.5149V36.0023L16.8326 36.0339C16.041 36.4165 15.1797 36.6347 14.2963 36.6758C13.3823 36.7471 12.474 36.4804 11.7442 35.9264C11.2232 35.5255 10.8358 34.9767 10.6328 34.3519C10.4082 33.6703 10.3819 32.9391 10.5568 32.2431C10.7214 31.5318 11.1172 30.8963 11.6872 30.4441C12.1938 30.0205 12.8113 29.7549 13.4667 29.679C14.624 29.5496 15.7936 29.7676 16.8263 30.305L16.9023 30.3461V26.8146L16.7408 26.7703C15.7067 26.4435 14.6229 26.3022 13.5395 26.353C12.5521 26.3742 11.5793 26.5958 10.6803 27.0043C9.77332 27.4226 8.97244 28.0397 8.33714 28.8096C7.37679 30.0225 6.84363 31.5177 6.82016 33.0637C6.79669 34.6097 7.28423 36.1204 8.20732 37.3618C9.13871 38.5598 10.4528 39.4033 11.931 39.752C13.4857 40.1314 15.1132 40.0745 16.6394 39.5876L16.9023 39.5149ZM29.3272 36.5999L29.3146 39.6256L29.5362 39.6635C30.2328 39.7921 30.9336 39.8817 31.6387 39.9323C32.2572 39.9913 32.8768 40.0039 33.4974 39.9702C34.0927 39.9259 34.6742 39.8163 35.2421 39.6414C35.907 39.4517 36.5245 39.126 37.0501 38.6771C37.5246 38.2711 37.8875 37.7509 38.1045 37.1658C38.4852 36.1883 38.4773 35.1025 38.0823 34.1306C37.8749 33.6265 37.5516 33.1782 37.1387 32.8217C36.7339 32.4647 36.2626 32.1908 35.7519 32.0155L33.4657 31.1682C33.1946 31.049 32.9738 30.8387 32.8419 30.5738C32.7932 30.464 32.7702 30.3446 32.7746 30.2247C32.779 30.1047 32.8107 29.9873 32.8673 29.8814C32.987 29.6911 33.1553 29.5362 33.3549 29.4324C33.6111 29.3094 33.8862 29.2303 34.1686 29.1985C34.6542 29.1268 35.1397 29.1321 35.6252 29.2143C36.1951 29.2775 36.7577 29.3787 37.3129 29.5178L37.4332 29.5431V26.7513L37.2147 26.7039C36.6477 26.5702 36.0737 26.4678 35.4954 26.3972C34.7453 26.2978 33.9855 26.2946 33.2346 26.3878C32.2846 26.4731 31.3822 26.8399 30.6349 27.4311C30.1283 27.8295 29.7452 28.3575 29.5235 28.9613C29.1942 29.8782 29.1911 30.8836 29.5235 31.8037C29.6966 32.2653 29.9626 32.6668 30.3215 33.0082C30.6297 33.3033 30.9748 33.5521 31.3569 33.7544C31.8551 34.02 32.3796 34.2255 32.9306 34.3709C33.1121 34.4257 33.2916 34.4826 33.4689 34.5416L33.738 34.6397L33.814 34.6713C34.08 34.7661 34.327 34.9179 34.5296 35.1139C34.6732 35.2488 34.7798 35.4079 34.8494 35.5913C34.8969 35.7575 34.898 35.9335 34.8526 36.1003C34.7667 36.3699 34.5779 36.5949 34.327 36.7263C34.0532 36.8631 33.7592 36.9549 33.4562 36.9982C33.0092 37.0686 32.5559 37.0908 32.1042 37.0646C31.5123 37.0197 30.9235 36.9416 30.3405 36.8307C30.0364 36.765 29.7335 36.6944 29.4317 36.6188L29.3272 36.5999ZM21.4904 39.7457H24.8151V26.5711H21.4904V39.7457ZM60.0002 30.4631C60.3533 30.1759 60.7597 29.9609 61.1961 29.8306C61.6325 29.7002 62.0904 29.657 62.5435 29.7034C62.9967 29.7498 63.4362 29.8849 63.8371 30.1009C64.2379 30.317 64.5921 30.6098 64.8796 30.9627C65.1679 31.3149 65.3837 31.7205 65.5147 32.1562C65.6458 32.5919 65.6895 33.0491 65.6433 33.5017C65.5971 33.9543 65.462 34.3933 65.2456 34.7936C65.0293 35.194 64.736 35.5478 64.3825 35.8348L64.3286 35.879C63.6075 36.4311 62.6982 36.6788 61.7962 36.5688C60.8941 36.4587 60.0713 35.9998 59.5045 35.2906C58.9376 34.5813 58.672 33.6784 58.7647 32.7757C58.8574 31.8731 59.301 31.0427 60.0002 30.4631ZM55.1714 33.1632C55.1875 34.1915 55.4325 35.2033 55.8887 36.1254C56.3449 37.0475 57.0008 37.8567 57.8089 38.4944C58.6169 39.1321 59.557 39.5823 60.5609 39.8124C61.5647 40.0425 62.6073 40.0467 63.613 39.8248C64.9627 39.5698 66.2028 38.9111 67.1688 37.936C68.1349 36.961 68.7812 35.7157 69.022 34.3654C69.2628 33.0151 69.0867 31.6236 68.5171 30.3755C67.9474 29.1274 67.0113 28.0818 65.8327 27.3773C64.7849 26.7306 63.5845 26.3719 62.3531 26.3375C61.1218 26.3032 59.9032 26.5945 58.8209 27.1818C57.7386 27.7692 56.831 28.6318 56.1901 29.6822C55.5492 30.7326 55.1978 31.9335 55.1714 33.1632ZM72.7101 15.9828C72.7287 16.4059 72.9101 16.8056 73.2166 17.0984C73.523 17.3913 73.9309 17.5547 74.355 17.5547C74.7792 17.5547 75.1871 17.3913 75.4935 17.0984C75.8 16.8056 75.9814 16.4059 76 15.9828V12.3311C75.9814 11.9079 75.8 11.5083 75.4935 11.2154C75.1871 10.9226 74.7792 10.7591 74.355 10.7591C73.9309 10.7591 73.523 10.9226 73.2166 11.2154C72.9101 11.5083 72.7287 11.9079 72.7101 12.3311V15.9828ZM63.7049 15.9828C63.7364 16.3976 63.9238 16.7853 64.2294 17.0681C64.535 17.351 64.9363 17.5081 65.353 17.5081C65.7697 17.5081 66.171 17.351 66.4766 17.0681C66.7822 16.7853 66.9695 16.3976 67.0011 15.9828V7.79726C66.9751 7.37886 66.7903 6.98609 66.4844 6.69899C66.1784 6.41189 65.7744 6.25205 65.3546 6.25205C64.9347 6.25205 64.5307 6.41189 64.2247 6.69899C63.9188 6.98609 63.734 7.37886 63.708 7.79726L63.7049 15.9828ZM54.5666 19.2804C54.5982 19.6944 54.7851 20.0813 55.0901 20.3636C55.3952 20.6458 55.7957 20.8027 56.2116 20.8027C56.6274 20.8027 57.028 20.6458 57.333 20.3636C57.638 20.0813 57.825 19.6944 57.8565 19.2804V1.57198C57.8379 1.14883 57.6565 0.74918 57.35 0.456322C57.0436 0.163465 56.6358 0 56.2116 0C55.7874 0 55.3796 0.163465 55.0731 0.456322C54.7666 0.74918 54.5852 1.14883 54.5666 1.57198V19.2804ZM45.5804 15.9828C45.6064 16.4012 45.7912 16.7939 46.0971 17.081C46.403 17.3681 46.8071 17.528 47.2269 17.528C47.6467 17.528 48.0508 17.3681 48.3567 17.081C48.6626 16.7939 48.8474 16.4012 48.8734 15.9828V7.79726C48.8548 7.37412 48.6734 6.97446 48.3669 6.68161C48.0605 6.38875 47.6527 6.22529 47.2285 6.22529C46.8043 6.22529 46.3965 6.38875 46.09 6.68161C45.7836 6.97446 45.6021 7.37412 45.5835 7.79726L45.5804 15.9828ZM36.3978 15.9828C36.4379 16.3906 36.6285 16.7689 36.9326 17.0441C37.2366 17.3194 37.6323 17.4718 38.0427 17.4718C38.4531 17.4718 38.8489 17.3194 39.1529 17.0441C39.4569 16.7689 39.6476 16.3906 39.6877 15.9828V12.3311C39.6691 11.9079 39.4877 11.5083 39.1812 11.2154C38.8748 10.9226 38.4669 10.7591 38.0427 10.7591C37.6186 10.7591 37.2107 10.9226 36.9043 11.2154C36.5978 11.5083 36.4164 11.9079 36.3978 12.3311V15.9828ZM27.3102 15.9828C27.3288 16.4059 27.5103 16.8056 27.8167 17.0984C28.1232 17.3913 28.531 17.5547 28.9552 17.5547C29.3794 17.5547 29.7872 17.3913 30.0936 17.0984C30.4001 16.8056 30.5815 16.4059 30.6001 15.9828V7.79726C30.5815 7.37412 30.4001 6.97446 30.0936 6.68161C29.7872 6.38875 29.3794 6.22529 28.9552 6.22529C28.531 6.22529 28.1232 6.38875 27.8167 6.68161C27.5103 6.97446 27.3288 7.37412 27.3102 7.79726V15.9828ZM18.1688 19.2804C18.1874 19.7035 18.3688 20.1032 18.6753 20.396C18.9818 20.6889 19.3896 20.8523 19.8138 20.8523C20.238 20.8523 20.6458 20.6889 20.9522 20.396C21.2587 20.1032 21.4401 19.7035 21.4587 19.2804V1.57198C21.4401 1.14883 21.2587 0.74918 20.9522 0.456322C20.6458 0.163465 20.238 0 19.8138 0C19.3896 0 18.9818 0.163465 18.6753 0.456322C18.3688 0.74918 18.1874 1.14883 18.1688 1.57198V19.2804ZM9.10974 15.9828C9.14589 16.3939 9.335 16.7766 9.63979 17.0554C9.94458 17.3342 10.3429 17.4888 10.7563 17.4888C11.1696 17.4888 11.568 17.3342 11.8727 17.0554C12.1775 16.7766 12.3667 16.3939 12.4028 15.9828V7.79726C12.3842 7.37412 12.2028 6.97446 11.8963 6.68161C11.5899 6.38875 11.182 6.22529 10.7579 6.22529C10.3337 6.22529 9.92584 6.38875 9.61939 6.68161C9.31294 6.97446 9.1315 7.37412 9.11291 7.79726L9.10974 15.9828ZM0 15.9828C0.0315347 16.3968 0.218522 16.7837 0.523534 17.066C0.828545 17.3483 1.22907 17.5051 1.64495 17.5051C2.06082 17.5051 2.46135 17.3483 2.76636 17.066C3.07137 16.7837 3.25836 16.3968 3.28989 15.9828V12.3311C3.27129 11.9079 3.08986 11.5083 2.78341 11.2154C2.47696 10.9226 2.06913 10.7591 1.64495 10.7591C1.22076 10.7591 0.812934 10.9226 0.506482 11.2154C0.200031 11.5083 0.0185974 11.9079 0 12.3311V15.9828Z" fill="white"/>
</svg>
