<svg width="46" height="43" viewBox="0 0 46 43" fill="none" xmlns="http://www.w3.org/2000/svg">
<path d="M46 0H23H0L4.30915 38.6254L23 43L41.6832 38.6254L46 0Z" fill="white"/>
<path d="M23 4V39L38.2796 35.6098L42 4H23Z" fill="#919191" fill-opacity="0.25"/>
<path d="M35.6142 8H11.6654L10 22.5016L10.0354 22.4097H30.378L29.7126 28.5464L23.2244 30.052L16.6378 28.5242L16.2402 24.8092H10.2598L11.1142 32.2296L23.2244 35L35.3346 32.2296L37 17.6709H15.4134L15.689 12.8149H30.6732L30.8937 15.5947H36.9291L35.6142 8Z" fill="white"/>
<path d="M23 8H11.6332L10 22.505L10.0348 22.4163H23V17.6669H16.142L16.4129 12.8096H22.9923L23 8ZM16.1343 24.8037H10.2554L11.0953 32.2512L23 35V30.0572L16.5252 28.529L16.1343 24.8037Z" fill="#EBEBEB"/>
</svg>
