<svg width="32" height="40" viewBox="0 0 32 40" fill="none" xmlns="http://www.w3.org/2000/svg">
<path d="M13.4604 9.41104C13.3991 9.55237 13.3391 9.62303 13.2804 9.62303C13.2124 9.63637 13.1778 9.59904 13.1764 9.51104C13.1764 9.33238 13.3098 9.22038 13.5764 9.17505H13.7864C13.7155 9.17992 13.6473 9.20463 13.5896 9.24635C13.532 9.28807 13.4872 9.34513 13.4604 9.41104ZM15.3744 9.34305C15.3301 9.2915 15.2714 9.25442 15.2058 9.2366C15.1402 9.21878 15.0707 9.22102 15.0064 9.24305C15.3424 9.07906 15.5664 9.09372 15.6784 9.28705C15.7198 9.37638 15.6991 9.44304 15.6164 9.48704C15.5591 9.50304 15.4784 9.45504 15.3744 9.34305ZM8.1085 19.0847C8.07031 19.1756 8.03889 19.2691 8.0145 19.3647C7.98749 19.4688 7.94856 19.5694 7.8985 19.6646C7.83741 19.7681 7.76713 19.8658 7.6885 19.9566C7.59117 20.1046 7.5845 20.194 7.6685 20.2246C7.7245 20.238 7.81183 20.1853 7.9305 20.0666C8.08431 19.9141 8.1906 19.7203 8.2365 19.5087C8.24654 19.4628 8.26059 19.418 8.27849 19.3747C8.30274 19.314 8.31693 19.2499 8.32049 19.1847V19.1167L8.3005 19.0627C8.28716 19.024 8.26583 19.0087 8.2365 19.0167C8.1805 19.0033 8.13783 19.026 8.1085 19.0847ZM25.0563 26.0924L25.2143 25.4784C25.2623 25.2944 25.297 25.1011 25.3183 24.8984C25.3383 24.6985 25.3597 24.5385 25.3823 24.4185C25.4023 24.2998 25.4057 24.1331 25.3923 23.9185C25.3817 23.7734 25.375 23.628 25.3723 23.4825C25.3723 23.4078 25.3477 23.2445 25.2983 22.9925L25.2143 22.5325C25.1819 22.3467 25.1466 22.1613 25.1083 21.9766L24.9943 21.3846C24.8543 20.6713 24.5243 19.9046 24.0043 19.0847C23.4857 18.266 22.981 17.7087 22.4904 17.4127C22.8277 17.7087 23.2277 18.326 23.6904 19.2647C24.9103 21.6752 25.2883 23.7432 24.8243 25.4684C24.671 26.0644 24.321 26.3771 23.7744 26.4064C23.3384 26.4664 23.0684 26.3291 22.9644 25.9944C22.859 25.6584 22.803 25.0371 22.7964 24.1305C22.7999 23.3282 22.7188 22.5278 22.5544 21.7426C22.4434 21.2228 22.3065 20.7088 22.1444 20.2026C22.039 19.8522 21.9017 19.5121 21.7344 19.1867C21.6355 18.9984 21.5267 18.8154 21.4084 18.6387C21.33 18.5179 21.2388 18.4059 21.1364 18.3047L20.9784 18.1487C20.8226 17.3659 20.6046 16.5969 20.3264 15.8488C20.0891 15.2395 19.8824 14.8228 19.7064 14.5988C19.5238 14.366 19.3587 14.12 19.2124 13.8629C19.0572 13.5856 18.9504 13.284 18.8964 12.9709C18.8404 12.6589 18.8824 12.2609 19.0224 11.777C19.1624 11.293 19.1944 10.9243 19.1184 10.671C19.0424 10.4177 18.7304 10.2317 18.1824 10.113C17.8546 10.0201 17.5401 9.88567 17.2464 9.71303C16.8331 9.48904 16.5844 9.36904 16.5004 9.35305C16.3884 9.33971 16.3111 9.14639 16.2684 8.77307C16.2317 8.3864 16.2893 7.99659 16.4364 7.63711C16.5911 7.25046 16.8437 7.04913 17.1944 7.03314C17.7131 6.98914 18.0704 7.21246 18.2664 7.70311C18.4624 8.19509 18.4904 8.62707 18.3504 8.99906C18.1971 9.28172 18.1831 9.47837 18.3084 9.58904C18.4351 9.70103 18.6451 9.70503 18.9384 9.60104C19.1211 9.54104 19.2124 9.27305 19.2124 8.79707V7.9711C19.1592 7.59042 19.0639 7.21682 18.9284 6.85714C18.847 6.63451 18.7224 6.43015 18.5617 6.2558C18.4011 6.08145 18.2076 5.94055 17.9924 5.84118C17.8095 5.76526 17.6191 5.70895 17.4244 5.67319C15.9258 5.79318 15.3024 6.78981 15.5544 8.66307C15.5544 8.88706 15.5478 8.99906 15.5344 8.99906C15.4064 8.86573 15.1998 8.78773 14.9144 8.76507C14.6828 8.74138 14.4493 8.74474 14.2184 8.77507C14.0451 8.80573 13.9371 8.76907 13.8944 8.66507C13.9078 7.81577 13.7951 7.1458 13.5564 6.65515C13.3191 6.1645 13.0038 5.91118 12.6105 5.89518C12.2331 5.88185 11.9425 6.08651 11.7385 6.50916C11.5345 6.93447 11.4185 7.37712 11.3905 7.8371C11.3771 8.0611 11.4018 8.33642 11.4645 8.66307C11.5285 8.98973 11.6198 9.26905 11.7385 9.50104C11.8585 9.73036 11.9671 9.83036 12.0645 9.80103C12.2133 9.74561 12.3342 9.63342 12.4005 9.48904C12.4565 9.35571 12.4071 9.29571 12.2525 9.30905C12.1538 9.30905 12.0451 9.20172 11.9265 8.98706C11.8031 8.75644 11.7347 8.50048 11.7265 8.23909C11.7029 7.95075 11.7693 7.6622 11.9165 7.41312C12.0565 7.18913 12.2945 7.08513 12.6305 7.10113C12.8705 7.10113 13.0598 7.25713 13.1984 7.56911C13.3384 7.8811 13.4051 8.17109 13.3984 8.43908C13.3986 8.60353 13.3886 8.76784 13.3684 8.93106C13.0591 9.15372 12.8418 9.36904 12.7165 9.57704C12.5638 9.79207 12.3658 9.97095 12.1365 10.101C11.9902 10.1897 11.8468 10.2831 11.7065 10.381C11.546 10.5489 11.4334 10.7568 11.3805 10.983C11.3458 11.1776 11.3985 11.3116 11.5385 11.385C11.7345 11.505 11.9098 11.6503 12.0645 11.821C12.2178 11.9916 12.3298 12.1329 12.4005 12.2449C12.4711 12.3569 12.6005 12.4536 12.7885 12.5349C12.9765 12.6163 13.2251 12.6643 13.5344 12.6789C14.1931 12.7096 14.9084 12.5983 15.6804 12.3449C15.8395 12.2861 16.001 12.2341 16.1644 12.1889C16.4578 12.0996 16.6991 12.0216 16.8884 11.9549C17.0777 11.8883 17.2844 11.7916 17.5084 11.665C17.6893 11.5779 17.8424 11.4422 17.9504 11.273C18.0771 11.065 18.2171 11.0056 18.3704 11.095C18.405 11.1157 18.4351 11.1433 18.4588 11.1759C18.4825 11.2086 18.4994 11.2456 18.5084 11.285C18.5284 11.3663 18.5071 11.4556 18.4444 11.553C18.3804 11.649 18.2651 11.7196 18.0984 11.765C17.8184 11.8543 17.4217 12.0143 16.9084 12.2449L15.9524 12.6789C15.3364 12.9629 14.8458 13.1342 14.4804 13.1929C14.1298 13.2676 13.5764 13.2529 12.8205 13.1489C12.6805 13.1182 12.6171 13.1329 12.6305 13.1929C12.6438 13.2516 12.7625 13.3929 12.9865 13.6169C13.3371 13.9595 13.8071 14.1235 14.3964 14.1089C14.6542 14.089 14.9083 14.0359 15.1524 13.9509C15.4119 13.8643 15.6652 13.76 15.9104 13.6389C16.1478 13.5189 16.3824 13.3889 16.6144 13.2489C16.8464 13.1089 17.0571 12.9822 17.2464 12.8689C17.4344 12.7582 17.6057 12.6689 17.7604 12.6009C17.9164 12.5343 18.0391 12.5156 18.1284 12.5449C18.2204 12.5756 18.2804 12.6576 18.3084 12.7909C18.3105 12.8254 18.3036 12.8599 18.2884 12.8909C18.2698 12.935 18.2402 12.9735 18.2024 13.0029C18.1096 13.0851 18.0076 13.1562 17.8984 13.2149C17.8369 13.2516 17.7735 13.285 17.7084 13.3149C17.6591 13.3389 17.5891 13.3762 17.4984 13.4269C17.4337 13.4639 17.3669 13.4973 17.2984 13.5269C16.7959 13.8106 16.3205 14.14 15.8784 14.5108C15.3251 14.9575 14.8598 15.2775 14.4824 15.4708C14.1038 15.6641 13.7604 15.6708 13.4524 15.4908C13.1578 15.3281 12.7158 14.7855 12.1265 13.8629C11.8185 13.4029 11.6431 13.2396 11.6005 13.3729C11.5835 13.4456 11.5767 13.5203 11.5805 13.5949C11.5805 13.9669 11.4751 14.3869 11.2645 14.8548C11.0551 15.3255 10.8485 15.7388 10.6445 16.0948C10.4244 16.4983 10.2756 16.9367 10.2045 17.3907C10.109 17.873 10.1944 18.3735 10.4445 18.7967C10.1218 18.886 9.68382 19.5553 9.13049 20.8046C8.57716 22.0539 8.24383 23.1032 8.1305 23.9525C8.09578 24.465 8.08577 24.9789 8.1005 25.4924C8.10716 26.2497 8.0685 26.6884 7.9845 26.8084C7.8725 27.1657 7.66917 27.1884 7.3745 26.8764C6.92651 26.4151 6.67451 25.7151 6.61851 24.7765C6.59051 24.3605 6.61851 23.9445 6.70251 23.5285C6.75718 23.2445 6.75051 23.1105 6.68251 23.1265L6.59651 23.2385C6.09252 24.2038 6.16252 25.4384 6.80651 26.9424C6.87718 27.121 7.05251 27.329 7.3325 27.5663C7.6125 27.8063 7.7805 27.955 7.8365 28.0123C8.1165 28.3563 8.84582 29.0296 10.0245 30.0322C11.2018 31.0362 11.8531 31.6055 11.9785 31.7402C12.2049 31.9657 12.3371 32.2688 12.3485 32.5881C12.3682 32.9333 12.2632 33.274 12.0525 33.5481C11.9405 33.6986 11.7968 33.8226 11.6316 33.9114C11.4664 34.0003 11.2837 34.0517 11.0965 34.0621C11.2071 34.2847 11.4105 34.6161 11.7065 35.0561C11.9998 35.496 12.1958 35.8974 12.2945 36.26C12.3931 36.624 12.4425 37.1486 12.4425 37.8339C13.0864 37.4766 13.1351 36.792 12.5885 35.78C12.5279 35.6533 12.4542 35.5333 12.3685 35.422L12.1685 35.1561C12.1271 35.0961 12.1131 35.0507 12.1265 35.0201C12.1665 34.9467 12.2571 34.8761 12.3985 34.8081C12.5385 34.7414 12.6785 34.7601 12.8185 34.8641C13.4638 35.6374 14.6278 35.9054 16.3104 35.668C18.1744 35.4454 19.4144 34.7981 20.0304 33.7261C20.353 33.1608 20.5917 32.9375 20.7464 33.0561C20.9157 33.1455 20.9857 33.5321 20.9564 34.2161C20.943 34.5881 20.7817 35.2727 20.4724 36.27C20.3457 36.6113 20.3037 36.8906 20.3464 37.108C20.3864 37.3226 20.5544 37.4373 20.8504 37.452C20.8917 37.1706 20.9937 36.598 21.1564 35.734C21.3164 34.8714 21.411 34.2021 21.4404 33.7261C21.467 33.4128 21.421 32.8661 21.3024 32.0862C21.1881 31.37 21.1359 30.6454 21.1464 29.9203C21.1597 29.2589 21.3204 28.7343 21.6284 28.3463C21.839 28.0797 22.197 27.9463 22.7024 27.9463C22.7157 27.3943 22.957 26.9997 23.4264 26.7624C23.8972 26.524 24.4317 26.442 24.9523 26.5284C25.499 26.6084 25.919 26.775 26.2123 27.0284C26.2123 26.7617 25.827 26.4497 25.0563 26.0924ZM12.9565 7.9031C12.8778 7.70844 12.7971 7.59711 12.7145 7.56911C12.5878 7.53845 12.5245 7.59045 12.5245 7.72511C12.5525 7.79977 12.5878 7.84444 12.6305 7.8591C12.7705 7.8591 12.8191 7.97043 12.7765 8.19309C12.7351 8.49308 12.7918 8.64241 12.9465 8.64107C12.9864 8.64107 13.0071 8.61841 13.0085 8.57308C13.0553 8.34936 13.0372 8.11692 12.9565 7.9031ZM21.6824 12.7129C21.6018 12.6533 21.5076 12.6148 21.4084 12.6009C21.2999 12.5823 21.1964 12.5414 21.1044 12.4809C21.0299 12.4302 20.9626 12.3697 20.9044 12.3009C20.8126 12.196 20.7246 12.088 20.6404 11.9769C20.6172 11.9428 20.5889 11.9124 20.5564 11.8869C20.543 11.8803 20.515 11.8916 20.4724 11.9209C20.2764 12.1609 20.3257 12.4843 20.6204 12.8909C20.9137 13.3002 21.187 13.5349 21.4404 13.5949C21.567 13.6082 21.6684 13.5482 21.7444 13.4149C21.8225 13.2802 21.8488 13.1216 21.8184 12.9689C21.8018 12.8711 21.7541 12.7814 21.6824 12.7129ZM18.0764 8.21909C18.0793 8.06704 18.0428 7.91683 17.9704 7.78311C17.9162 7.67341 17.8375 7.57763 17.7404 7.50312C17.6551 7.44445 17.5917 7.42245 17.5504 7.43712C17.3544 7.45045 17.3051 7.50245 17.4024 7.59311L17.4864 7.63911C17.6837 7.69911 17.8104 7.92977 17.8664 8.33109C17.8664 8.37508 17.9224 8.35975 18.0344 8.28509L18.0764 8.21909ZM19.1584 2.90729C19.1042 2.84527 19.0408 2.79198 18.9704 2.7493L18.7704 2.61531C18.5584 2.39265 18.3897 2.28132 18.2644 2.28132C18.1377 2.29465 18.0577 2.34998 18.0244 2.44731C17.9903 2.54011 17.9834 2.6407 18.0044 2.7373C18.0226 2.83027 18.0185 2.92622 17.9924 3.01729C17.9631 3.1019 17.9199 3.181 17.8644 3.25128C17.8159 3.31364 17.7737 3.38063 17.7384 3.45127C17.7251 3.48861 17.7464 3.5526 17.8024 3.64327C17.8584 3.68726 17.9144 3.68726 17.9704 3.64327C18.0264 3.59793 18.1037 3.53127 18.2024 3.44327C18.2935 3.35683 18.4 3.2883 18.5164 3.24128C18.5297 3.22528 18.5931 3.21795 18.7064 3.21928C18.8135 3.22097 18.9202 3.20544 19.0224 3.17328C19.1197 3.14395 19.1824 3.09195 19.2104 3.01729C19.2104 2.98796 19.1931 2.95129 19.1584 2.90729ZM31.7443 33.4941C31.8989 33.6808 31.9829 33.8594 31.9963 34.0301C32.0086 34.1986 31.9903 34.368 31.9423 34.5301C31.8768 34.7184 31.7655 34.8875 31.6183 35.0221C31.4617 35.1763 31.2968 35.3219 31.1243 35.458C30.9643 35.5847 30.7536 35.722 30.4923 35.87C30.0541 36.12 29.6093 36.3581 29.1583 36.584C28.8916 36.7173 28.7023 36.814 28.5903 36.874C27.9502 37.2297 27.3472 37.6484 26.7903 38.1239C26.1263 38.6746 25.5977 39.1506 25.2043 39.5519C24.967 39.7919 24.4903 39.9372 23.7744 39.9879C23.0584 40.0385 22.435 39.9305 21.9044 39.6639C21.6605 39.5387 21.4484 39.3595 21.2844 39.1399C21.1475 38.9634 21.0308 38.7723 20.9364 38.5699C20.8657 38.4059 20.7117 38.2613 20.4744 38.1359C20.2344 38.0093 19.9051 37.9386 19.4864 37.9239C18.5752 37.9066 17.6638 37.8992 16.7524 37.9019C16.4858 37.9019 16.0858 37.9126 15.5524 37.9339C15.0204 37.9566 14.6138 37.9753 14.3324 37.9899C13.7597 37.997 13.1933 38.1109 12.6625 38.3259C12.2512 38.4824 11.8702 38.7091 11.5365 38.9959C11.2629 39.2495 10.9553 39.4635 10.6225 39.6319C10.2772 39.8156 9.88924 39.904 9.49848 39.8879C9.09315 39.8732 8.31516 39.6425 7.16451 39.1959C5.82793 38.6615 4.43902 38.2687 3.02055 38.0239C2.57122 37.9426 2.22122 37.8759 1.97055 37.8239C1.69099 37.7652 1.41407 37.6944 1.14056 37.612C0.887877 37.5467 0.64882 37.437 0.434569 37.288C0.279452 37.1767 0.156614 37.0262 0.0785728 36.852C-0.0627592 36.5107 -0.0134266 36.016 0.226571 35.368C0.465236 34.7214 0.591235 34.3161 0.604568 34.1521C0.613821 33.8524 0.585602 33.5528 0.520569 33.2601C0.459142 32.9416 0.389117 32.6249 0.31057 32.3102C0.241481 32.0445 0.20918 31.7706 0.214572 31.4962C0.222572 31.2295 0.295904 31.0289 0.434569 30.8942C0.634567 30.7142 1.03456 30.6096 1.63456 30.5802C2.23722 30.5496 2.65722 30.4602 2.89455 30.3122C3.31588 30.0442 3.61121 29.7843 3.78054 29.5323C3.94854 29.2789 4.03254 28.899 4.03254 28.3923C4.32587 29.4789 4.1012 30.2676 3.35854 30.7582C2.91055 31.0555 2.32922 31.1675 1.61456 31.0942C1.13723 31.0475 0.835232 31.1215 0.708567 31.3162C0.528569 31.5402 0.563902 31.9642 0.814566 32.5881C0.842566 32.6775 0.898565 32.8115 0.982564 32.9901C1.06656 33.1688 1.12656 33.3028 1.16256 33.3921C1.20625 33.5154 1.23773 33.6427 1.25656 33.7721C1.2833 33.934 1.29002 34.0986 1.27656 34.2621C1.27656 34.4861 1.1579 34.8507 0.920565 35.356C0.6819 35.8614 0.583235 36.2187 0.624568 36.428C0.665901 36.6813 0.925898 36.8746 1.40456 37.008C1.68456 37.096 2.27655 37.2333 3.18054 37.42C4.08453 37.6066 4.78186 37.7593 5.27252 37.8779C5.60852 37.9673 6.12718 38.1306 6.82851 38.3679C7.52984 38.6066 8.10783 38.7779 8.56249 38.8819C9.01849 38.9859 9.40715 39.0159 9.72848 38.9719C10.3325 38.8812 10.7851 38.6726 11.0865 38.3459C11.3702 38.0576 11.5418 37.6775 11.5705 37.274C11.5827 36.8338 11.5288 36.3942 11.4105 35.97C11.3141 35.5719 11.1808 35.1835 11.0125 34.8101C10.8803 34.5341 10.7402 34.262 10.5925 33.9941C8.89649 31.1675 7.71183 29.3669 7.03851 28.5923C6.08652 27.491 5.29452 27.1937 4.66253 27.7003C4.50786 27.8337 4.40253 27.7217 4.34653 27.3643C4.30316 27.0839 4.28975 26.7997 4.30653 26.5164C4.31987 26.0857 4.3892 25.6991 4.51453 25.3564C4.63986 25.0138 4.80853 24.6638 5.02053 24.3065C5.23252 23.9491 5.38586 23.6372 5.48052 23.3705C5.59385 23.0572 5.78052 22.5212 6.04052 21.7626C6.29785 21.0026 6.50451 20.4226 6.66051 20.0226C6.81384 19.6213 7.02384 19.168 7.2905 18.6627C7.55717 18.1547 7.8305 17.7527 8.1105 17.4567C9.65048 15.3275 10.5205 13.8749 10.7205 13.0989C10.5525 11.4323 10.4398 9.12572 10.3825 6.17917C10.3545 4.84189 10.5231 3.71526 10.8885 2.7993C11.2525 1.886 11.9945 1.10936 13.1144 0.469389C13.6611 0.157401 14.3898 0.00140692 15.3004 0.00140692C16.0431 -0.0132592 16.7864 0.086737 17.5304 0.301395C18.2731 0.517387 18.8964 0.826708 19.4004 1.22936C20.2004 1.85334 20.8417 2.7573 21.3244 3.94125C21.8084 5.12254 22.015 6.21917 21.9444 7.23113C21.8737 8.64441 22.0844 10.237 22.5764 12.0089C23.0524 13.6889 23.9843 15.3101 25.3723 16.8728C26.143 17.7527 26.8403 18.966 27.4643 20.5126C28.0883 22.0592 28.505 23.4798 28.7143 24.7744C28.8263 25.5038 28.8616 26.1324 28.8203 26.6604C28.779 27.1884 28.695 27.6017 28.5683 27.9003C28.443 28.1963 28.303 28.3596 28.1483 28.3903C28.0083 28.4196 27.843 28.561 27.6523 28.8143C27.4643 29.0663 27.275 29.3303 27.0843 29.6063C26.8594 29.915 26.5692 30.1704 26.2343 30.3542C25.8557 30.5769 25.4277 30.6809 24.9503 30.6662C24.7267 30.6554 24.5051 30.6178 24.2903 30.5542C24.107 30.5015 23.9425 30.3974 23.8163 30.2542C23.7153 30.1443 23.6205 30.0288 23.5324 29.9083C23.4393 29.7628 23.359 29.6096 23.2924 29.4503C23.1924 29.2343 23.129 29.0896 23.1024 29.0163C22.793 28.4656 22.5057 28.2423 22.2404 28.3463C21.9737 28.449 21.777 28.813 21.6504 29.4383C21.5237 30.0636 21.573 30.7856 21.7984 31.6042C22.0784 32.6441 22.085 34.0948 21.8184 35.956C21.6784 36.9226 21.805 37.6706 22.1984 38.1999C22.5904 38.7279 23.1017 38.9732 23.7324 38.9359C24.363 38.8959 24.959 38.6319 25.5203 38.1439C26.347 37.4146 26.9737 36.92 27.4003 36.66C27.8283 36.4 28.5543 36.0834 29.5783 35.71C30.3196 35.442 30.8589 35.1707 31.1963 34.8961C31.5323 34.6201 31.6616 34.3634 31.5843 34.1261C31.4858 33.8614 31.3013 33.6374 31.0603 33.4901C30.7214 33.2724 30.3574 33.0965 29.9763 32.9661C29.515 32.8021 29.1683 32.4448 28.9363 31.8942C28.7136 31.3839 28.6057 30.8308 28.6203 30.2742C28.6416 29.7476 28.7503 29.3943 28.9463 29.2143C28.9633 29.9607 29.1242 30.6968 29.4203 31.3822C29.5243 31.6049 29.6676 31.8168 29.8503 32.0182C30.033 32.2182 30.1796 32.3595 30.2903 32.4422C30.4036 32.5235 30.555 32.6202 30.7443 32.7321C30.9336 32.8441 31.0496 32.9148 31.0923 32.9441C31.3723 33.1228 31.5896 33.3075 31.7443 33.4941Z" fill="white"/>
</svg>
