<svg width="46" height="40" viewBox="0 0 46 40" fill="none" xmlns="http://www.w3.org/2000/svg">
<path d="M9.44527 0.531145C7.35612 1.58926 7.35612 1.75573 9.3111 3.93701C20.1498 15.9819 22.7353 18.8271 22.9328 18.8271C23.1992 18.8597 38.2104 2.48282 38.3772 1.98725C38.4423 1.85331 37.9785 1.39026 37.3824 0.961662C36.587 0.364679 35.7264 0.133156 34.1011 0.0681005C31.0536 -0.130894 29.9918 0.531145 26.2141 4.76551C24.491 6.68466 23.0324 8.27279 23.0324 8.27279C22.9998 8.27279 21.5758 6.71719 19.8853 4.83248C18.1948 2.94778 16.2398 1.05733 15.5766 0.693785C14.051 -0.167249 10.9364 -0.232304 9.44335 0.529232L9.44527 0.531145ZM2.4859 5.39503C0.862494 6.02262 0 6.61961 0 7.08074C0 7.31226 2.55107 10.2914 5.63496 13.6992C8.74952 17.1051 11.268 19.9522 11.268 20.0173C11.268 20.0823 8.71694 22.9295 5.63304 26.3373C2.51848 29.7776 0.0325831 32.7874 0.0670829 33.0533C0.231915 33.9469 2.94973 35.072 4.9373 35.072C8.15344 35.0375 8.88177 34.475 15.6763 27.0318C19.088 23.293 21.8728 20.1168 21.8728 20.0173C21.8728 19.8853 19.1225 16.776 15.7415 13.0716C11.3332 8.27279 9.18077 6.12212 8.15153 5.65908C6.5952 4.89754 4.07672 4.76551 2.4859 5.39503ZM37.8807 5.62463C36.9186 6.12212 34.4998 8.50431 30.3234 13.0697C26.9443 16.776 24.192 19.8853 24.192 20.0173C24.192 20.1512 26.9769 23.293 30.3905 27.0318C37.1831 34.475 37.9133 35.0375 41.1275 35.072C43.117 35.072 45.8329 33.9469 45.9997 33.0533C46.0323 32.7548 43.5464 29.7776 40.4318 26.3698C37.3498 22.9639 34.7968 20.0843 34.7968 20.0173C34.7968 19.9503 37.3498 17.0725 40.4318 13.6648C43.5464 10.2608 46.0323 7.27973 45.9997 7.01568C45.8329 6.15465 43.3815 5.1635 41.2598 5.02957C39.7361 4.96451 38.9406 5.09462 37.8807 5.62463ZM15.2451 29.5154C11.1358 34.0483 7.75478 37.8847 7.6877 38.0492C7.62253 38.1832 8.08636 38.6462 8.68436 39.0767C9.47785 39.6718 10.3403 39.9033 11.9638 39.9703C14.9806 40.1674 16.1056 39.4728 19.9179 35.1715C21.5739 33.3193 22.9998 31.7656 23.0324 31.7656C23.065 31.7656 24.491 33.3193 26.1815 35.2059C30.0589 39.5072 31.0862 40.1348 34.1011 39.9703C35.7264 39.9033 36.587 39.6718 37.3824 39.0767C37.9785 38.6462 38.4423 38.1832 38.3772 38.0511C38.2104 37.5537 23.1973 21.1768 22.9328 21.2112C22.8005 21.2112 19.3544 24.95 15.2451 29.5154Z" fill="white"/>
</svg>
