<svg width="59" height="40" viewBox="0 0 59 40" fill="none" xmlns="http://www.w3.org/2000/svg">
<path d="M40.329 4.04967C40.0462 4.04967 39.8545 4.08404 39.6554 4.13067V4.16258H39.6898C39.8225 4.41784 40.0487 4.60438 40.2159 4.83264C40.3486 5.09527 40.4617 5.3579 40.5945 5.61807L40.6289 5.58125C40.86 5.41926 40.973 5.15908 40.973 4.76392C40.8747 4.64856 40.86 4.5332 40.7764 4.4203C40.678 4.25585 40.4666 4.17485 40.3339 4.04477L40.329 4.04967ZM14.1846 36.4337H11.9057C11.8412 32.8178 11.6197 29.2063 11.242 25.6096H11.2223L7.75604 36.4337H6.02292L2.58125 25.6096H2.55667C2.28762 29.2119 2.12776 32.8216 2.07729 36.4337H0C0.136028 31.6066 0.472 27.0822 1.00792 22.8606H3.835L7.11687 32.8355H7.13654L10.4479 22.8606H13.1398C13.7347 27.8087 14.0854 32.3331 14.192 36.4337H14.1846ZM24.0597 26.4195C23.1305 31.4413 21.9078 35.0903 20.3919 37.3664C19.207 39.1238 17.9098 40.0016 16.5003 40C16.1267 40 15.6629 39.8871 15.1089 39.6613V38.4488C15.381 38.4913 15.6973 38.5126 16.0578 38.5126C16.7167 38.5126 17.2468 38.331 17.6484 37.9677C18.1318 37.5259 18.3736 37.0309 18.3736 36.4828C18.3736 36.1015 18.1851 35.3292 17.8082 34.1658L15.3154 26.4195H17.5525L19.3397 32.212C19.7445 33.5276 19.9125 34.4464 19.8437 34.9684C20.827 32.3536 21.5112 29.504 21.8964 26.4195H24.0597ZM54.3587 36.4337H47.8932V22.8606H50.0689V34.7647H54.3587V36.4337ZM46.197 36.765L43.6993 35.5378C43.9222 35.3529 44.1312 35.1484 44.3262 34.9242C45.3898 33.6806 45.9208 31.8373 45.9192 29.3943C45.9192 24.9027 44.1533 22.656 40.6215 22.6544C38.8908 22.6544 37.5387 23.2246 36.5652 24.3652C35.5065 25.612 34.9772 27.4488 34.9772 29.8754C34.9755 32.2628 35.4459 34.0136 36.3882 35.1279C37.247 36.1342 38.5442 36.6374 40.2798 36.6374C40.9288 36.6374 41.5229 36.5572 42.0621 36.3969L45.3194 38.2917L46.2044 36.765H46.197ZM38.1042 33.7166C37.5519 32.8314 37.2757 31.4111 37.2757 29.4557C37.2757 26.0358 38.3164 24.3259 40.3978 24.3259C41.4893 24.3259 42.2899 24.735 42.7996 25.5531C43.3502 26.4416 43.6256 27.8513 43.6256 29.7821C43.6256 33.2298 42.5849 34.9545 40.5035 34.9561C39.4104 34.9561 38.6089 34.547 38.0993 33.7289L38.1042 33.7166ZM34.0282 32.6735C34.0282 33.8287 33.6054 34.7745 32.7598 35.5108C31.9174 36.2471 30.7833 36.6153 29.3574 36.6153C28.0225 36.6153 26.7418 36.1931 25.4905 35.3513L26.0731 34.1829C27.1482 34.7213 28.1233 34.9896 28.9985 34.988C29.8147 34.988 30.4563 34.808 30.9234 34.448C31.1574 34.2729 31.3464 34.0446 31.4746 33.7822C31.6028 33.5197 31.6667 33.2305 31.6609 32.9385C31.6609 32.1286 31.0955 31.4413 30.0679 30.8645C29.114 30.3417 27.2088 29.252 27.2088 29.252C26.1714 28.4984 25.6552 27.6909 25.6552 26.3631C25.6552 25.2602 26.0403 24.3725 26.8106 23.7C27.5825 23.0193 28.5822 22.6798 29.8097 22.6814C31.0701 22.6814 32.2173 23.0168 33.2514 23.6877L32.7278 24.856C31.9033 24.4925 31.0134 24.3004 30.1121 24.2915C29.4156 24.2915 28.8797 24.4601 28.5044 24.7971C28.3154 24.9545 28.163 25.1511 28.0577 25.3732C27.9524 25.5953 27.8968 25.8376 27.8947 26.0833C27.8947 26.8883 28.47 27.5805 29.532 28.1695C30.4981 28.6973 32.45 29.814 32.45 29.814C33.5145 30.5626 34.043 31.3603 34.043 32.6808L34.0282 32.6735ZM57.0923 18.31C55.7771 18.2757 54.7569 18.4082 53.9039 18.7715C53.658 18.8696 53.2647 18.8696 53.2303 19.1814C53.3655 19.3114 53.3852 19.525 53.5007 19.7066C53.6974 20.0355 54.0366 20.4748 54.3513 20.7056C54.6922 20.9788 55.0421 21.2325 55.401 21.4664C56.0402 21.8592 56.7654 22.0923 57.3923 22.4875C57.7487 22.7182 58.1125 23.0103 58.4739 23.2557C58.6534 23.3785 58.7689 23.5994 59 23.6779V23.6288C58.8869 23.4815 58.8525 23.268 58.7419 23.1036C58.5772 22.9391 58.4125 22.7918 58.2502 22.6299C57.7682 21.9942 57.1921 21.4356 56.5417 20.9731C56.0156 20.6148 54.8651 20.114 54.6487 19.5127L54.6168 19.4783C54.9757 19.4464 55.4035 19.3163 55.7476 19.2182C56.3057 19.0709 56.817 19.1028 57.3947 18.958C57.6569 18.8893 57.9192 18.8124 58.1814 18.7273V18.58C57.8864 18.2855 57.6651 17.8854 57.3603 17.6105C56.5086 16.869 55.6013 16.1936 54.6463 15.5905C54.13 15.2616 53.4761 15.0505 52.9328 14.7707C52.7362 14.6725 52.4067 14.6234 52.2937 14.459C51.9987 14.1006 51.8266 13.6245 51.6176 13.1974C51.1355 12.2622 50.687 11.3101 50.2729 10.3429C49.9779 9.69982 49.7985 9.05921 49.4371 8.47014C47.7408 5.67943 45.9045 3.98831 43.0798 2.33401C42.4726 1.99039 41.745 1.84312 40.9755 1.66149C40.565 1.64186 40.1544 1.61241 39.7463 1.59522C39.4759 1.47987 39.2153 1.16815 38.9842 1.01843C38.0501 0.429361 35.6311 -0.846953 34.9427 0.841708C34.5002 1.90694 35.5991 2.95744 35.9802 3.49742C36.2629 3.87295 36.6193 4.30248 36.816 4.72465C36.9315 5.00936 36.9635 5.30144 37.079 5.59843C37.3396 6.32004 37.5879 7.1251 37.9321 7.80007C38.1115 8.1437 38.3082 8.5045 38.5393 8.81376C38.672 8.99294 38.8982 9.07639 38.9498 9.37092C38.7188 9.70473 38.704 10.1907 38.5712 10.5981C37.9812 12.4562 38.2123 14.7535 39.0482 16.1207C39.3112 16.5281 39.9381 17.4313 40.7764 17.0853C41.5139 16.7907 41.3516 15.858 41.563 15.0358C41.6122 14.8394 41.5802 14.7093 41.681 14.5768V14.6136C41.9121 15.0751 42.1432 15.5144 42.3546 15.9758C42.861 16.7809 43.746 17.6154 44.486 18.1726C44.8793 18.4671 45.1915 18.9776 45.6832 19.1593V19.1102H45.6463C45.5406 18.9678 45.4005 18.8991 45.2677 18.7837C44.9564 18.4787 44.6688 18.1505 44.4073 17.802C43.7168 16.8556 43.1028 15.856 42.571 14.8124C42.3005 14.297 42.0744 13.7423 41.858 13.2342C41.7597 13.0379 41.7597 12.7433 41.595 12.6452C41.3492 13.0035 40.9878 13.3152 40.8083 13.757C40.4961 14.4639 40.4642 15.3328 40.3462 16.236C40.2798 16.2532 40.3117 16.236 40.2798 16.2704C39.7537 16.1427 39.5742 15.5979 39.3776 15.1413C38.8859 13.9755 38.8048 12.1027 39.2301 10.7601C39.3456 10.4165 39.8373 9.33165 39.6406 9.00275C39.5374 8.69104 39.2129 8.51186 39.0334 8.25906C38.8029 7.92983 38.6052 7.5788 38.4434 7.21101C38.0501 6.29304 37.8534 5.2769 37.4257 4.35893C37.229 3.93431 36.8848 3.49006 36.6046 3.0998C36.2924 2.658 35.9482 2.34629 35.6999 1.82349C35.6188 1.64431 35.5033 1.34733 35.6335 1.15097C35.668 1.01843 35.7368 0.966886 35.8646 0.930069C36.081 0.753349 36.6882 0.984067 36.902 1.08224C37.5092 1.32769 38.0206 1.55841 38.5295 1.90203C38.7605 2.06402 39.0088 2.37574 39.3038 2.45674H39.648C40.1741 2.5721 40.7665 2.4911 41.2582 2.63591C42.1309 2.91572 42.9176 3.32316 43.6231 3.76496C45.7973 5.15124 47.5657 7.08698 48.7487 9.37583C48.9454 9.75381 49.0315 10.0999 49.2109 10.4926C49.5551 11.3026 49.9804 12.1199 50.3295 12.9029C50.6736 13.676 51.0055 14.4639 51.4996 15.1045C51.7455 15.4481 52.7337 15.6273 53.1762 15.8065C53.5032 15.9538 54.012 16.0887 54.307 16.2679C54.8725 16.6115 55.4231 17.0043 55.9541 17.3822C56.2245 17.5688 57.0432 17.9787 57.0923 18.31Z" fill="white"/>
</svg>
