<svg width="46" height="43" viewBox="0 0 46 43" fill="none" xmlns="http://www.w3.org/2000/svg">
<path d="M44.2951 0H1.70286C0.682616 0 -0.0828184 0.709725 0.00719341 1.54835L3.89748 37.3868C3.9876 38.2247 4.86928 39.1018 5.85818 39.3283L21.1942 42.8303C22.1818 43.0553 23.796 43.0568 24.785 42.8333L40.14 39.3362C41.1291 39.1103 42.0108 38.2412 42.1008 37.4017L45.9928 1.54835C46.0828 0.709725 45.3206 0 44.2951 0ZM36.9085 12.9367C36.9078 12.9421 36.9026 12.9464 36.896 12.9473C36.8894 12.9483 36.8829 12.9454 36.88 12.9403L24.8647 16.9881C24.6935 17.0457 24.596 17.1949 24.6315 17.3441C24.6673 17.4933 24.8264 17.6009 25.0115 17.6009H34.3575C34.8547 17.6009 35.3283 17.7745 35.6608 18.0784C35.9931 18.3823 36.1529 18.788 36.1001 19.1944L34.6398 30.4558C34.5682 31.0083 34.1166 31.4777 33.4789 31.6621L23.5588 34.5315C23.1852 34.6397 22.778 34.6405 22.4035 34.5338L12.5297 31.7221C11.8882 31.5394 11.4328 31.0687 11.3607 30.5137L10.6987 25.4136C10.6639 25.1459 10.7692 24.8786 10.9881 24.6784C11.2071 24.4782 11.5191 24.3638 11.8467 24.3638H14.5943C15.1847 24.3638 15.6799 24.7298 15.7424 25.2124L16.1485 28.3472L22.9851 30.3008L29.853 28.3294L30.693 21.8278H11.2746C10.6859 21.8278 10.1915 21.4638 10.127 20.9828L9.75725 18.2272C9.7008 17.8069 9.98928 17.4067 10.4647 17.2456L22.8926 13.0334C23.0337 12.9856 23.1138 12.8627 23.0842 12.7398C23.0545 12.6169 22.9235 12.5284 22.7712 12.5284H9.68624C9.2923 12.5284 8.96192 12.2838 8.92081 11.9619L8.54231 9.00014C8.51953 8.82191 8.58987 8.64405 8.73578 8.51076C8.88169 8.37757 9.08961 8.30147 9.30764 8.30147H36.6867C36.9059 8.30147 37.1147 8.37839 37.2607 8.51277C37.4068 8.64724 37.4761 8.82648 37.4513 9.00553L36.9085 12.9367Z" fill="white"/>
</svg>
