<svg width="46" height="43" viewBox="0 0 46 43" fill="none" xmlns="http://www.w3.org/2000/svg">
<path d="M22.9138 0.859998C22.8131 0.873436 22.7161 0.900311 22.6263 0.940623L4.4275 8.25062C4.32688 8.27078 4.22984 8.30773 4.14 8.35812C3.97828 8.44547 3.84531 8.57648 3.76625 8.73437C3.75547 8.74445 3.74828 8.75117 3.7375 8.76125C3.71234 8.81164 3.69438 8.86875 3.68 8.9225C3.68 8.93929 3.68 8.95945 3.68 8.97625C3.65484 9.09047 3.65484 9.2114 3.68 9.32562C3.68719 9.36258 3.69797 9.39953 3.70875 9.43312L4.85875 26.1762C4.87313 26.4316 5.00969 26.6701 5.2325 26.8212L12.0463 31.4437C11.9313 31.9712 11.845 32.4852 11.845 33.0025C11.845 38.0348 16.8583 42.14 23 42.14C29.1417 42.14 34.1263 38.0382 34.1263 33.0025C34.1263 32.4952 34.0616 31.988 33.9538 31.4706L40.7675 26.8212C40.9903 26.6701 41.1269 26.4316 41.1413 26.1762L42.32 9.27187V9.245C42.3236 9.19125 42.3236 9.1375 42.32 9.08375C42.32 9.07367 42.32 9.06695 42.32 9.05687C42.32 9.04008 42.32 9.01992 42.32 9.00312C42.32 8.99304 42.32 8.98633 42.32 8.97625C42.3056 8.89226 42.2769 8.81164 42.2338 8.73437C42.2086 8.68734 42.1798 8.64367 42.1475 8.6C42.1295 8.57984 42.1116 8.56304 42.09 8.54625C42.09 8.53617 42.09 8.52945 42.09 8.51937C42.0469 8.47906 41.9966 8.44211 41.9463 8.41187C41.8923 8.37828 41.8348 8.35141 41.7738 8.33125L41.6013 8.2775L23.3738 0.940623C23.23 0.876795 23.0719 0.84992 22.9138 0.859998ZM23 2.66062L39.3588 9.21812L23 17.9256L6.64125 9.21812L23 2.66062ZM23 4.91812L20.2113 6.04687L21.275 6.665C21.3936 6.73554 21.4619 6.85648 21.4763 6.9875C21.4906 7.11851 21.4331 7.24617 21.3325 7.33687L19.7513 8.76125L23.8913 7.17562C24.0853 7.10172 24.3117 7.14875 24.4375 7.31C24.5633 7.47125 24.5453 7.69633 24.4088 7.8475L23.1438 9.245L25.1563 8.57312C25.3359 8.51266 25.5192 8.57312 25.645 8.7075C25.7672 8.84187 25.7923 9.03336 25.7025 9.19125L24.5238 11.3144L27.5138 12.9537L34.1838 9.40625L23 4.91812ZM19.1763 6.45L11.8163 9.40625L23 15.3456L26.5938 13.4375L23.6613 11.825C23.4492 11.7074 23.3738 11.4655 23.4888 11.2606L24.3513 9.75562L21.8213 10.5887C21.6236 10.6559 21.4223 10.5887 21.3038 10.4275C21.1852 10.2662 21.1995 10.0647 21.3325 9.91687L22.4825 8.62687L17.825 10.4275C17.6202 10.5081 17.3722 10.4409 17.25 10.2662C17.1278 10.0916 17.1745 9.86984 17.3363 9.72875L20.2688 7.095L19.1763 6.45ZM5.60625 10.6425L22.08 19.4037V36.1469L6.67 25.6656L5.60625 10.6425ZM40.3938 10.6425L39.33 25.6656L23.92 36.1469V19.4037L40.3938 10.6425ZM37.6913 14.5125L26.3063 20.9894L26.105 31.9544L36.8288 24.94L37.6913 14.5125ZM8.25125 14.7006L8.99875 24.5637L19.4063 31.5244L19.1475 21.0431L8.25125 14.7006Z" fill="white"/>
</svg>
