<svg width="74" height="19" viewBox="0 0 74 19" fill="none" xmlns="http://www.w3.org/2000/svg">
<path d="M0.803223 0H73.0654V19H0.803223V0Z" fill="white"/>
<path d="M3.90015 2.89318H14.3523V4.27495L5.9218 14.5956H14.5674V16.1068H3.68506V14.7251L12.1156 4.4046H3.90001L3.90015 2.89318ZM21.6216 4.66361L19.1698 11.2273H24.0733L21.6216 4.66361ZM20.5892 2.89333H22.6108L27.6864 16.107H25.8368L24.6325 12.7388H18.6106L17.4063 16.107H15.5136L20.5892 2.89333ZM31.4285 9.80244V14.6388H34.3105C35.2998 14.6388 35.988 14.4228 36.4612 14.0343C36.9344 13.6458 37.1494 13.0411 37.1494 12.2207C37.1494 11.4003 36.9343 10.7956 36.4612 10.407C35.9881 10.0185 35.2567 9.80244 34.3105 9.80244H31.4285ZM31.4285 4.36152V8.33424H34.0955C34.9557 8.33424 35.6439 8.16152 36.0741 7.8593C36.5041 7.51386 36.7192 7.03891 36.7192 6.34788C36.7192 5.70022 36.5041 5.18191 36.0741 4.83647C35.6439 4.49103 34.9986 4.36152 34.0953 4.36152H31.4285ZM29.622 2.89333H34.2244C35.6008 2.89333 36.6332 3.19555 37.4074 3.75693C38.1386 4.31831 38.5257 5.13884 38.5257 6.17516C38.5257 6.99555 38.3537 7.64336 37.9666 8.11831C37.5795 8.59344 37.0203 8.89572 36.2891 9.02513C37.1924 9.19799 37.8806 9.58665 38.3537 10.1911C38.8269 10.7956 39.0849 11.5297 39.0849 12.4365C39.0849 13.6024 38.6978 14.5093 37.8806 15.1569C37.0634 15.8047 35.9449 16.107 34.4395 16.107H29.622V2.89333ZM43.7734 9.80244V14.6388H46.6554C47.6016 14.6388 48.3328 14.4228 48.8059 14.0343C49.279 13.6458 49.4941 13.0411 49.4941 12.2207C49.4941 11.4003 49.2791 10.7956 48.8059 10.407C48.3328 10.0184 47.6016 9.80244 46.6552 9.80244H43.7734ZM43.7734 4.36152V8.33424H46.4401C47.3005 8.33424 47.9887 8.16152 48.4189 7.8593C48.8489 7.51386 49.0639 7.03891 49.0639 6.34788C49.0639 5.70022 48.8489 5.18191 48.4189 4.83647C47.9888 4.49103 47.3434 4.36152 46.4401 4.36152H43.7734ZM41.9668 2.89333H46.5693C47.9457 2.89333 48.9779 3.19555 49.7522 3.75693C50.4834 4.31831 50.8706 5.13884 50.8706 6.17516C50.8706 6.99555 50.6984 7.64336 50.3114 8.11831C49.9242 8.59344 49.365 8.89572 48.6338 9.02513C49.5371 9.19799 50.2254 9.58665 50.6985 10.1911C51.1716 10.7956 51.4296 11.5297 51.4296 12.4365C51.4296 13.6024 51.0426 14.5093 50.2253 15.1569C49.4081 15.8047 48.2898 16.107 46.7844 16.107H41.9668V2.89333ZM54.2686 2.89333H56.0752V16.107H54.2686V2.89333ZM59.4732 2.89333H61.4519L64.5918 7.64336L67.7747 2.89333H69.6674L65.5381 9.0682L70.1835 16.1068H68.2048L64.5487 10.5795L60.8926 16.1068H58.957L63.6024 9.11142L59.4732 2.89333Z" fill="black"/>
</svg>
