<svg width="153" height="40" viewBox="0 0 153 40" fill="none" xmlns="http://www.w3.org/2000/svg">
<path d="M0 0H152.131V40H0V0Z" fill="white"/>
<path d="M6.51997 6.09091H28.5246V8.99989L10.7761 30.7275H28.9774V33.9091H6.06714V31.0001L23.8157 9.27283H6.51967L6.51997 6.09091ZM43.8283 9.81812L38.6665 23.6364H48.9898L43.8283 9.81812ZM41.6548 6.09121H45.9109L56.5963 33.9094H52.7024L50.167 26.8186H37.4893L34.9539 33.9094H30.9694L41.6548 6.09121ZM64.4744 20.6367V30.8185H70.5418C72.6244 30.8185 74.0732 30.3638 75.0695 29.5459C76.0658 28.728 76.5183 27.4549 76.5183 25.7277C76.5183 24.0006 76.0655 22.7275 75.0695 21.9095C74.0735 21.0916 72.5338 20.6367 70.5418 20.6367H64.4744ZM64.4744 9.18215V17.5458H70.089C71.9 17.5458 73.3488 17.1821 74.2545 16.5459C75.1598 15.8186 75.6127 14.8187 75.6127 13.364C75.6127 12.0004 75.1598 10.9093 74.2545 10.182C73.3488 9.45479 71.9904 9.18215 70.0887 9.18215H64.4744ZM60.6712 6.09121H70.3606C73.2582 6.09121 75.4317 6.72747 77.0615 7.90932C78.6009 9.09117 79.4159 10.8186 79.4159 13.0003C79.4159 14.7275 79.0537 16.0913 78.2387 17.0912C77.4238 18.0915 76.2466 18.7278 74.7073 19.0003C76.609 19.3642 78.0578 20.1824 79.0537 21.4549C80.05 22.7275 80.5932 24.2729 80.5932 26.182C80.5932 28.6367 79.7781 30.5458 78.0578 31.9093C76.3374 33.2731 73.9826 33.9094 70.8134 33.9094H60.6712V6.09121ZM90.4636 20.6367V30.8185H96.531C98.5229 30.8185 100.062 30.3638 101.058 29.5459C102.054 28.728 102.507 27.4549 102.507 25.7277C102.507 24.0006 102.055 22.7275 101.058 21.9095C100.062 21.0913 98.5229 20.6367 96.5307 20.6367H90.4636ZM90.4636 9.18215V17.5458H96.0779C97.8892 17.5458 99.338 17.1821 100.244 16.5459C101.149 15.8186 101.602 14.8187 101.602 13.364C101.602 12.0004 101.149 10.9093 100.244 10.182C99.3383 9.45479 97.9795 9.18215 96.0779 9.18215H90.4636ZM86.6603 6.09121H96.3497C99.2473 6.09121 101.421 6.72747 103.051 7.90932C104.59 9.09117 105.405 10.8186 105.405 13.0003C105.405 14.7275 105.043 16.0913 104.228 17.0912C103.413 18.0915 102.235 18.7278 100.696 19.0003C102.598 19.3642 104.047 20.1824 105.043 21.4549C106.039 22.7275 106.582 24.2729 106.582 26.182C106.582 28.6367 105.767 30.5458 104.047 31.9093C102.326 33.2731 99.9717 33.9094 96.8026 33.9094H86.6603V6.09121ZM112.559 6.09121H116.362V33.9094H112.559V6.09121ZM123.516 6.09121H127.682L134.292 16.0913L140.993 6.09121H144.977L136.284 19.0909L146.064 33.9091H141.898L134.201 22.2726L126.504 33.9091H122.429L132.209 19.1819L123.516 6.09121Z" fill="#FF0000"/>
</svg>
