<svg width="40" height="40" viewBox="0 0 40 40" fill="none" xmlns="http://www.w3.org/2000/svg">
<mask id="mask0_1_13" style="mask-type:luminance" maskUnits="userSpaceOnUse" x="0" y="0" width="40" height="40">
<path d="M0 0H40V40H0V0Z" fill="white"/>
</mask>
<g mask="url(#mask0_1_13)">
<path d="M19.8567 0C9.7 0 10.3333 4.42667 10.3333 4.42667L10.345 9.01333H20.035V10.39H6.5C6.5 10.39 0 9.64833 0 19.9483C0 30.2483 5.67167 29.8817 5.67167 29.8817H9.055V25.1033C9.055 25.1033 8.87333 19.4033 14.6383 19.4033H24.2483C24.2483 19.4033 29.6483 19.49 29.6483 14.1567V5.33667C29.6483 5.33667 30.4683 0 19.8567 0ZM14.5133 3.08333C15.4767 3.08333 16.2567 3.86667 16.2567 4.83667C16.2567 5.805 15.4767 6.58833 14.5133 6.58833C13.55 6.58833 12.77 5.805 12.77 4.83667C12.77 3.86667 13.5483 3.08333 14.5133 3.08333Z" fill="white"/>
<path d="M20.145 40C30.2983 40 29.665 35.5733 29.665 35.5733L29.6533 30.9867H19.9633V29.61H33.5017C33.5017 29.61 40.0017 30.3517 40.0017 20.0517C40.0017 9.75168 34.3283 10.1183 34.3283 10.1183H30.945V14.8967C30.945 14.8967 31.1267 20.5967 25.3617 20.5967H15.7533C15.7533 20.5967 10.3533 20.51 10.3533 25.8433V34.6633C10.3533 34.6633 9.53335 40 20.145 40ZM25.4883 36.9167C24.5233 36.9167 23.745 36.1333 23.745 35.1633C23.745 34.195 24.5233 33.4117 25.4883 33.4117C26.4517 33.4117 27.2317 34.195 27.2317 35.1633C27.2317 36.1333 26.4517 36.9167 25.4883 36.9167Z" fill="white"/>
</g>
</svg>
